<?xml version="1.0" encoding="UTF-8"?>
<svg xmlns="http://www.w3.org/2000/svg" viewBox="365.66 354.90 268.67 290.20">
<path fill-rule="nonzero" fill="#FFFFFF" d="M 564.941406 423.625 L 463.136719 423.625 L 487.347656 447.835938 C 491.453125 451.960938 496.925781 454.210938 502.734375 454.210938 L 550.457031 454.210938 L 550.457031 494.863281 L 502.734375 494.863281 C 500.109375 494.863281 497.519531 494.691406 494.964844 494.386719 C 481.230469 492.699219 468.539062 486.53125 458.605469 476.582031 L 434.375 452.371094 L 434.375 554.972656 L 395.664062 554.972656 L 395.664062 384.898438 L 564.941406 384.898438 Z M 564.941406 423.625 "/>
<path fill-rule="nonzero" fill="#FFFFFF" d="M 604.335938 445.042969 L 604.335938 615.101562 L 435.058594 615.101562 L 435.058594 576.390625 L 536.878906 576.390625 L 512.652344 552.164062 C 508.5625 548.058594 503.09375 545.789062 497.28125 545.789062 L 449.558594 545.789062 L 449.558594 505.152344 L 497.28125 505.152344 C 499.890625 505.152344 502.480469 505.308594 505.035156 505.632812 C 518.765625 507.316406 531.460938 513.484375 541.394531 523.417969 L 565.625 547.648438 L 565.625 445.042969 Z M 604.335938 445.042969 "/>
</svg>
